<svg aria-hidden="true" style="width:0;height:0;position:absolute;overflow:hidden" xmlns="http://www.w3.org/2000/svg"><defs><symbol id="book" viewBox="0 0 32 32"><path fill="#4440f6" style="fill:var(--color1,#4440f6)" d="M32 16c0 8.837-7.163 16-16 16S0 24.837 0 16 7.163 0 16 0s16 7.163 16 16z"/><path fill="none" stroke="#f4f4f4" style="stroke:var(--color2,#f4f4f4)" stroke-linejoin="round" stroke-linecap="round" d="M8.5 9.25H13a3.004 3.004 0 0 1 3 3v10.5a2.25 2.25 0 0 0-2.25-2.25H8.5V9.25zM23.5 9.25H19a3.004 3.004 0 0 0-3 3v10.5a2.25 2.25 0 0 1 2.25-2.25h5.25V9.25z"/></symbol><symbol id="home" viewBox="0 0 32 32"><path fill="none" stroke="#f4f4f4" style="stroke:var(--color2,#f4f4f4)" d="M31.5 16c0 8.56-6.94 15.5-15.5 15.5S.5 24.56.5 16C.5 7.44 7.44.5 16 .5S31.5 7.44 31.5 16z"/><path fill="none" stroke="#f4f4f4" style="stroke:var(--color2,#f4f4f4)" stroke-linejoin="round" stroke-linecap="round" d="M9.25 13.75 16 8.5l6.75 5.25V22a1.503 1.503 0 0 1-1.5 1.5h-10.5a1.503 1.503 0 0 1-1.5-1.5v-8.25z"/><path fill="none" stroke="#f4f4f4" style="stroke:var(--color2,#f4f4f4)" stroke-linejoin="round" stroke-linecap="round" d="M13.75 23.5V16h4.5v7.5"/></symbol><symbol id="like" viewBox="0 0 32 32"><path fill="#4440f6" style="fill:var(--color1,#4440f6)" d="M32 16c0 8.837-7.163 16-16 16S0 24.837 0 16 7.163 0 16 0s16 7.163 16 16z"/><path fill="none" stroke="#f4f4f4" style="stroke:var(--color2,#f4f4f4)" stroke-linejoin="round" stroke-linecap="round" d="M22.631 10.457a4.111 4.111 0 0 0-4.496-.895 4.09 4.09 0 0 0-1.338.895l-.795.795-.795-.795a4.125 4.125 0 0 0-5.836 0 4.125 4.125 0 0 0 0 5.836l6.63 6.63 6.63-6.63a4.111 4.111 0 0 0 .895-4.496 4.116 4.116 0 0 0-.895-1.338v0z"/></symbol><symbol id="search" viewBox="0 0 32 32"><path d="M13.464 23.726c2.277 0 4.489-.763 6.283-2.165l5.64 5.64 1.814-1.814-5.64-5.64a10.202 10.202 0 0 0 2.167-6.284c0-5.659-4.604-10.263-10.264-10.263S3.2 7.804 3.2 13.463s4.604 10.263 10.264 10.263zm0-17.96c4.245 0 7.698 3.452 7.698 7.697s-3.452 7.697-7.698 7.697c-4.245 0-7.698-3.452-7.698-7.697s3.452-7.697 7.698-7.697z"/></symbol><symbol id="x" viewBox="0 0 32 32"><path d="m26.667 7.303-1.97-1.97-7.808 7.808-7.808-7.808-1.97 1.97 7.808 7.808-7.808 7.808 1.97 1.97 7.808-7.808 7.808 7.808 1.97-1.97-7.808-7.808 7.808-7.808z"/></symbol><symbol id="menu" viewBox="0 0 32 32"><path d="M6.4 11.734V9.6h19.2v2.134H6.4zm0 5.332h19.2v-2.133H6.4v2.133zm0 5.334h19.2v-2.134H6.4V22.4z"/></symbol><symbol id="arrow-right" viewBox="0 0 32 32"><path fill="none" stroke="#f4f4f4" style="stroke:var(--color1,#f4f4f4)" stroke-linejoin="round" stroke-linecap="round" stroke-width="2.667" d="m12 24 8-8-8-8"/></symbol><symbol id="arrow_down" viewBox="0 0 32 32"><path fill="#fff" style="fill:var(--color1,#fff)" d="M4.576 5.333 1.067 8.58 16 22.399 30.933 8.58l-3.509-3.248L16 15.881 4.576 5.332z"/></symbol><symbol id="arrow_up" viewBox="0 0 30 32"><path fill="#fff" style="fill:var(--color1,#fff)" d="M3.509 22.4 0 19.153 14.933 5.334l14.933 13.819-3.509 3.247-11.424-10.549L3.509 22.4z"/></symbol><symbol id="icon-moon" viewBox="0 0 32 32"><path fill="none" stroke="#5f6775" style="stroke:var(--color1,#5f6775)" stroke-linejoin="round" stroke-linecap="round" stroke-width="2.286" d="M28 17.053a11.994 11.994 0 0 1-7.873 10.182A12.003 12.003 0 0 1 4.338 18.56 12.002 12.002 0 0 1 14.946 3.999 9.335 9.335 0 0 0 28 17.053v0z"/></symbol><symbol id="icon-sun" viewBox="0 0 32 32"><path fill="none" stroke="#4b48db" style="stroke:var(--color2,#4b48db)" stroke-linejoin="round" stroke-linecap="round" stroke-width="2.286" d="M16 1.778v2.586m0 23.272v2.586M5.941 5.941l1.836 1.836m16.447 16.446 1.836 1.836M1.778 16h2.586m23.273 0h2.586M5.941 26.059l1.836-1.836M24.224 7.777l1.836-1.836M22.465 16a6.465 6.465 0 1 1-12.93 0 6.465 6.465 0 0 1 12.93 0z"/></symbol></defs></svg>