<svg width="32" height="32" viewBox="0 0 32 32" fill="none" xmlns="http://www.w3.org/2000/svg">
<circle cx="16" cy="16" r="16" fill="#4440F6"/>
<path d="M8.5 9.25H13C13.7956 9.25 14.5587 9.56607 15.1213 10.1287C15.6839 10.6913 16 11.4544 16 12.25V22.75C16 22.1533 15.7629 21.581 15.341 21.159C14.919 20.7371 14.3467 20.5 13.75 20.5H8.5V9.25Z" stroke="#F4F4F4" stroke-linecap="round" stroke-linejoin="round"/>
<path d="M23.5 9.25H19C18.2044 9.25 17.4413 9.56607 16.8787 10.1287C16.3161 10.6913 16 11.4544 16 12.25V22.75C16 22.1533 16.2371 21.581 16.659 21.159C17.081 20.7371 17.6533 20.5 18.25 20.5H23.5V9.25Z" stroke="#F4F4F4" stroke-linecap="round" stroke-linejoin="round"/>
</svg>
