<svg width="32" height="32" viewBox="0 0 32 32" fill="none" xmlns="http://www.w3.org/2000/svg">
<circle cx="16" cy="16" r="16" fill="#4440F6"/>
<path d="M22.6306 10.4575C22.2475 10.0743 21.7927 9.77026 21.2921 9.56284C20.7915 9.35542 20.2549 9.24866 19.7131 9.24866C19.1712 9.24866 18.6347 9.35542 18.1341 9.56284C17.6335 9.77026 17.1786 10.0743 16.7956 10.4575L16.0006 11.2525L15.2056 10.4575C14.4318 9.68376 13.3824 9.24906 12.2881 9.24906C11.1938 9.24906 10.1443 9.68376 9.37058 10.4575C8.59681 11.2313 8.16211 12.2808 8.16211 13.375C8.16211 14.4693 8.59681 15.5188 9.37058 16.2925L10.1656 17.0875L16.0006 22.9225L21.8356 17.0875L22.6306 16.2925C23.0138 15.9095 23.3178 15.4546 23.5253 14.954C23.7327 14.4534 23.8394 13.9169 23.8394 13.375C23.8394 12.8332 23.7327 12.2966 23.5253 11.796C23.3178 11.2954 23.0138 10.8406 22.6306 10.4575V10.4575Z" stroke="#F4F4F4" stroke-linecap="round" stroke-linejoin="round"/>
</svg>
