<svg width="21" height="21" viewBox="0 0 21 21" fill="none" xmlns="http://www.w3.org/2000/svg">
<path d="M18.3748 11.1912C18.2371 12.6807 17.6782 14.1001 16.7633 15.2834C15.8483 16.4668 14.6153 17.3651 13.2085 17.8732C11.8017 18.3814 10.2793 18.4784 8.81935 18.1528C7.35943 17.8273 6.02241 17.0927 4.96474 16.0351C3.90707 14.9774 3.17249 13.6404 2.84696 12.1804C2.52143 10.7205 2.61842 9.19807 3.12657 7.79126C3.63472 6.38445 4.53302 5.15145 5.71635 4.23653C6.89969 3.32162 8.31911 2.76264 9.80854 2.625C8.93653 3.80473 8.51691 5.25827 8.62601 6.72124C8.7351 8.18421 9.36567 9.55943 10.403 10.5968C11.4404 11.6341 12.8156 12.2647 14.2786 12.3738C15.7415 12.4829 17.1951 12.0633 18.3748 11.1912V11.1912Z" stroke="#5F6775" stroke-width="1.5" stroke-linecap="round" stroke-linejoin="round"/>
</svg>
