<svg width="20" height="20" viewBox="0 0 20 20" fill="none" xmlns="http://www.w3.org/2000/svg">
<path d="M8.41471 14.8287C9.83796 14.8284 11.2202 14.352 12.3413 13.4753L15.8662 17L17 15.8663L13.4751 12.3416C14.3523 11.2204 14.8291 9.83791 14.8294 8.41437C14.8294 4.87765 11.9516 2 8.41471 2C4.8778 2 2 4.87765 2 8.41437C2 11.9511 4.8778 14.8287 8.41471 14.8287ZM8.41471 3.60359C11.068 3.60359 13.2257 5.76123 13.2257 8.41437C13.2257 11.0675 11.068 13.2251 8.41471 13.2251C5.76143 13.2251 3.60368 11.0675 3.60368 8.41437C3.60368 5.76123 5.76143 3.60359 8.41471 3.60359Z" fill="#111321"/>
</svg>
